<svg id="Layer_1" data-name="Layer 1" xmlns="http://www.w3.org/2000/svg" xmlns:xlink="http://www.w3.org/1999/xlink" viewBox="0 0 564.02 478.2" width="406" height="306" class="illustration styles_illustrationTablet__1DWOa"><defs><linearGradient id="linear-gradient" x1="294.38" y1="146.36" x2="-195.04" y2="626.44" gradientUnits="userSpaceOnUse"><stop offset="0" stop-color="#fff" stop-opacity="0"></stop><stop offset="0.23" stop-color="#fff" stop-opacity="0.23"></stop><stop offset="0.95" stop-color="#fff"></stop></linearGradient><linearGradient id="linear-gradient-2" x1="175.88" y1="216.89" x2="241.9" y2="113.37" gradientUnits="userSpaceOnUse"><stop offset="0" stop-color="#010101" stop-opacity="0"></stop><stop offset="0.95" stop-color="#010101"></stop></linearGradient><linearGradient id="linear-gradient-3" x1="225.45" y1="162.47" x2="70.75" y2="252.48" gradientTransform="translate(114.93 -78.09) rotate(30)" xlink:href="#linear-gradient-2"></linearGradient><linearGradient id="linear-gradient-4" x1="218.69" y1="159.8" x2="89.67" y2="292.82" gradientTransform="translate(114.68 -78.77) rotate(30)" xlink:href="#linear-gradient-2"></linearGradient><linearGradient id="linear-gradient-5" x1="211.3" y1="157.57" x2="227.63" y2="174.57" xlink:href="#linear-gradient-2"></linearGradient><linearGradient id="linear-gradient-6" x1="309.36" y1="225.18" x2="333.27" y2="223.14" gradientUnits="userSpaceOnUse"><stop offset="0" stop-color="#e4c5d5"></stop><stop offset="0.42" stop-color="#e9d3cf"></stop><stop offset="1" stop-color="#efe8ca"></stop></linearGradient><linearGradient id="linear-gradient-7" x1="341.52" y1="325.9" x2="286.54" y2="264.08" xlink:href="#linear-gradient-2"></linearGradient><linearGradient id="linear-gradient-8" x1="224.79" y1="143.83" x2="251.51" y2="143.83" xlink:href="#linear-gradient-2"></linearGradient><linearGradient id="linear-gradient-9" x1="235.9" y1="199" x2="62.8" y2="368.81" gradientTransform="translate(-34.68 -10.61)" xlink:href="#linear-gradient"></linearGradient><linearGradient id="linear-gradient-10" x1="269.39" y1="255.67" x2="96.29" y2="425.48" gradientTransform="translate(-58.17 -28.28)" xlink:href="#linear-gradient"></linearGradient><linearGradient id="linear-gradient-11" x1="303.84" y1="317.12" x2="130.73" y2="486.92" gradientTransform="translate(-71.11 -56.72)" xlink:href="#linear-gradient"></linearGradient><linearGradient id="linear-gradient-12" x1="312.21" y1="330.86" x2="321.55" y2="330.86" xlink:href="#linear-gradient-6"></linearGradient><linearGradient id="linear-gradient-13" x1="212.19" y1="270.42" x2="430.22" y2="370.43" xlink:href="#linear-gradient-2"></linearGradient><linearGradient id="linear-gradient-14" x1="242.95" y1="299.2" x2="178.94" y2="875.3" xlink:href="#linear-gradient-2"></linearGradient></defs><title>Reminders Note</title><path d="M492.47,385c-4.65,13.82-7.81,26.89-8.66,39-5.16,73.31-94.6,76.16-153.29,70.12-40.63-4.19-79.14-22.88-120-23.66-21.66-.39-43.37,4.26-64.86,1.63-22.45-2.77-43.16-13.32-62.34-25.29-6.15-3.83-12.22-7.92-18.12-12.25C38.07,414.61,14.44,389.18,6.17,357-2.64,322.79,7.3,286.7,18.88,253.3,42.76,184.39,77.11,114.27,139,75.62c60.42-37.72,198.71-71.47,267.2-52C475.78,43.47,544.3,89.26,563.84,159,581.39,221.58,516.81,312.88,492.47,385Z" transform="translate(-2.8 -17.94)" fill="#3B82F6" opacity="0.24" style="isolation: isolate;"></path><path d="M492.47,385c-4.65,13.82-7.81,26.89-8.66,39-5.16,73.31-94.6,76.16-153.29,70.12-40.63-4.19-79.14-22.88-120-23.66-21.66-.39-43.37,4.26-64.86,1.63-22.45-2.77-43.16-13.32-62.34-25.29-6.15-3.83-12.22-7.92-18.12-12.25a16.42,16.42,0,0,1,1.42-3.38c9.13-16.34,52.54-23.94,69.2-28.77,48.95-14.28,99.78-21.53,150.62-24.19C355.14,374.58,423.88,379.16,492.47,385Z" transform="translate(-2.8 -17.94)" fill="#3B82F6" opacity="0.42" style="isolation: isolate;"></path><path d="M49.65,211.64A555.28,555.28,0,0,0,33.57,391.1c.43,5.83,1.41,12.46,6.29,15.69,2.63,1.73,5.91,2.1,9.06,2.27,36.26,2,70.64-14.65,103.13-30.88Q122,323.24,96.36,266c-8.36-18.7,12-64.62,4.41-83.64-1.83-4.57-27.6-2.38-34.69-1.35C56.76,182.35,50.76,207.34,49.65,211.64Z" transform="translate(-2.8 -17.94)" fill="#3B82F6" opacity="0.24" style="isolation: isolate;"></path><path d="M304.8,321,145.16,405l-2.88,1.53S23.92,300.53,66.08,181l177.37-18a4.26,4.26,0,0,1,0,.46c-.39,7.57-4.47,106.22,57.12,154.35Q302.62,319.48,304.8,321Z" transform="translate(-2.8 -17.94)" fill="#3B82F6"></path><path d="M304.8,321l-25.58,13.46L145.16,405c-14-13.25-113.82-112.82-74.57-224l172.82-17.52c-.25,5.05-2.16,50.66,14.92,94.78,8.49,21.95,21.71,43.55,42.2,59.57Q302.62,319.48,304.8,321Z" transform="translate(-2.8 -17.94)" fill="url(#linear-gradient)"></path><path d="M195,202.49a18.84,18.84,0,0,0,9.82,1.88,11.28,11.28,0,0,0,8.39-5,4.75,4.75,0,0,0,.8-3.08,6,6,0,0,0-.68-1.81c-4-7.77-9.81-14.41-15.87-20.69a18.63,18.63,0,0,0-5.62-4.43c-3.16-1.37-10.27-1.48-12.68,1.56-2.09,2.65-.79,8.64-.1,11.58C181,191.05,186.89,198.81,195,202.49Z" transform="translate(-2.8 -17.94)" opacity="0.26" fill="url(#linear-gradient-2)"></path><ellipse cx="203.19" cy="175.42" rx="16.28" ry="27.13" transform="translate(-63.28 107.15) rotate(-30)" fill="#3B82F6"></ellipse><ellipse cx="203.19" cy="175.42" rx="16.28" ry="27.13" transform="translate(-63.28 107.15) rotate(-30)" fill="url(#linear-gradient-3)"></ellipse><ellipse cx="204.32" cy="174.61" rx="14.89" ry="27.13" transform="matrix(0.87, -0.5, 0.5, 0.87, -62.73, 107.61)" fill="url(#linear-gradient-4)"></ellipse><path d="M197.58,158.37l28.1-17.78,13.19,17.2-25.52,25S193.56,186.75,197.58,158.37Z" transform="translate(-2.8 -17.94)" fill="#3B82F6"></path><path d="M197.58,158.37l28.1-17.78,13.19,17.2-25.52,25S193.56,186.75,197.58,158.37Z" transform="translate(-2.8 -17.94)" fill="url(#linear-gradient-5)"></path><path d="M248.39,161.32a6.65,6.65,0,0,1-1.39,1.06c-5.86,3.38-15.17-1.81-20.82-11.58s-5.47-20.42.39-23.83a6.29,6.29,0,0,1,1.32-.61c5.86-2,14.28,3.13,19.5,12.19C252.54,147.46,252.86,157.13,248.39,161.32Z" transform="translate(-2.8 -17.94)" fill="#3B82F6"></path><path d="M363.82,271.77c.69,9.56-1.57,30.38-5.17,39.27-2.28,5.6-5.4,7.73-7.67,13.33-1.83-18.41-.7-45.08,2-63.38.65-4.41.16-9.56,1.19-13.73C359.22,254,363.21,263.3,363.82,271.77Z" transform="translate(-2.8 -17.94)" fill="#3B82F6"></path><path d="M310.45,320.05l6.79,113.62,12.39,1.82,5.65-86.27,5.13,86.07,12.27.39s5.71-86.93,4.44-93.3,0-26.67,0-26.67Z" transform="translate(-2.8 -17.94)" fill="#606161"></path><path d="M356.8,322.06c-6.11,8.91-18.68,9.2-29.34,8.59-3.66-.21-7.5-.46-10.73-2.31-8.1-4.68-9.09-9.87-8.24-19.32-3-28.31-1.46-58.51,2.63-62.06a26,26,0,0,1,7.42-4.62,17.22,17.22,0,0,1,7.25-1.35,26.07,26.07,0,0,0,3.73-.17c5.33-.54,10.83-2.1,15.63-.15,3.34,1.35,6.14,3.84,8.84,6.29C358.26,250.76,361.6,315.06,356.8,322.06Z" transform="translate(-2.8 -17.94)" fill="#3B82F6"></path><path d="M329.52,240.82a26.07,26.07,0,0,1-3.73.17,17.22,17.22,0,0,0-7.25,1.35,13.16,13.16,0,0,0,0-3.76c-.78-4.05-5.11-6.32-7.42-9.77a14.2,14.2,0,0,1-1.88-9.52c.74-6.71,2.41-14.49,10.94-12.36,6.89,1.7,11.86,8.38,13,15.42C334.14,228.67,332.43,235.1,329.52,240.82Z" transform="translate(-2.8 -17.94)" fill="url(#linear-gradient-6)"></path><path d="M310,206.78c1,3.47,3.89,6.06,7,7.92a22.86,22.86,0,0,1,4.34,2.91c4.08,4,3.08,10.62,3,16.33,0,4.05.66,8.28,3.08,11.53,4.15,5.55,11.94,6.63,18.86,6.81a3.35,3.35,0,0,0,2.15-.43,2.84,2.84,0,0,0,.93-1.74c1.36-6.37-4.63-12.33-4.15-18.83.28-3.67,2.6-6.88,3.35-10.49,1.1-5.23-1.26-10.67-4.73-14.73a14.19,14.19,0,0,0-5.18-4.09c-3.62-1.52-7.88-.67-11.55-2.06-2.14-.81-3.94-2.32-6.05-3.18C315.23,194.39,308.29,200.82,310,206.78Z" transform="translate(-2.8 -17.94)" fill="#606161"></path><path d="M319.56,270.53s-5.78,12.3-15.26,19.5c0,0,.94,36.39,15.94,39.39,0,0,7.07,3.12,19.82.87,0,0-16.5-5-15.5-21.75C326.31,279.2,319.56,270.53,319.56,270.53Z" transform="translate(-2.8 -17.94)" opacity="0.26" fill="url(#linear-gradient-7)"></path><path d="M308.34,441.53a2,2,0,0,0-.7,1.44,1.7,1.7,0,0,0,.57,1,6.87,6.87,0,0,0,3.86,1.53,33.84,33.84,0,0,0,13.66-.76,5.76,5.76,0,0,0,3-1.52c.94-1.08,1-2.64,1.07-4.07l.13-4.94a2.69,2.69,0,0,0-.13-1.13c-.37-.9-1.53-1.13-2.5-1.2a66.11,66.11,0,0,0-7-.13c-.83,0-1.9-.12-2.56.41s-.89,1.55-1.33,2.1C314.08,437.11,310.79,438.87,308.34,441.53Z" transform="translate(-2.8 -17.94)" fill="#606161"></path><path d="M331.82,441.55a1.92,1.92,0,0,0-.67,1.39,1.6,1.6,0,0,0,.55,1,6.55,6.55,0,0,0,3.72,1.47,32.7,32.7,0,0,0,13.21-.73,5.54,5.54,0,0,0,2.87-1.47,6.07,6.07,0,0,0,1-3.92l.13-4.78a2.5,2.5,0,0,0-.13-1.09c-.36-.88-1.48-1.09-2.42-1.16a61.69,61.69,0,0,0-6.8-.13c-.8,0-1.83-.11-2.47.4s-.86,1.49-1.29,2C337.37,437.28,334.18,439,331.82,441.55Z" transform="translate(-2.8 -17.94)" fill="#606161"></path><path d="M297.39,276.69c-2.15,8.66-4.29,17.82-1.77,26.38a50.44,50.44,0,0,0,5.14,10.77l10.62,18.39a3.9,3.9,0,0,0,1.08,1.36,2.72,2.72,0,0,0,3.57-1,7.5,7.5,0,0,0,.94-3.95c.66-14.27-5.83-18.81-3.17-32.85,1-5.47,7.1-20.73,7.68-26.27s2.5-16.33-1-20.65C308.86,234.57,299.12,269.73,297.39,276.69Z" transform="translate(-2.8 -17.94)" fill="#3B82F6"></path><g opacity="0.26"><path d="M248.39,161.32c-5.87,2-14.25-3.16-19.47-12.19s-5.47-18.54-1-22.77c5.86-2,14.28,3.13,19.5,12.19C252.54,147.46,252.86,157.13,248.39,161.32Z" transform="translate(-2.8 -17.94)" fill="url(#linear-gradient-8)"></path></g><rect x="101.27" y="225.52" width="115.02" height="9" rx="4.5" transform="translate(-34.33 7.38) rotate(-8.3)" fill="url(#linear-gradient-9)"></rect><rect x="111.27" y="264.53" width="115.02" height="9" rx="4.5" transform="translate(-73.99 43.05) rotate(-16.97)" fill="url(#linear-gradient-10)"></rect><rect x="132.77" y="297.53" width="115.02" height="9" rx="4.5" transform="translate(-116.64 97.16) rotate(-26.21)" fill="url(#linear-gradient-11)"></rect><path d="M317.67,339.1c1.57-.07,2.66-1.59,3.21-3.06a12,12,0,0,0-3.7-13.18,1,1,0,0,0-.55-.26c-.34,0-.55.35-.7.65-1.34,2.7-4.26,6.51-3.63,9.65C312.72,335,315.23,339.21,317.67,339.1Z" transform="translate(-2.8 -17.94)" fill="url(#linear-gradient-12)"></path><path d="M304.8,321l-25.58,13.46a59.2,59.2,0,0,1-18.69-14.07c-5.32-5.93-8.77-14.13-7-21.95.89-4.05,3.13-7.74,4-11.79,1.07-5,.08-10.16-1.59-15-1.46-4.23-3.09-9.73.42-12.5a4.49,4.49,0,0,1,2-1c8.49,21.95,21.71,43.55,42.2,59.57Q302.62,319.48,304.8,321Z" transform="translate(-2.8 -17.94)" opacity="0.26" fill="url(#linear-gradient-13)"></path><polygon points="370.35 194.57 355.35 221.58 392.02 208.91 370.35 194.57" fill="#3B82F6" opacity="0.24" style="isolation: isolate;"></polygon><circle cx="419.03" cy="143.32" r="74.51" fill="#3B82F6" opacity="0.24" style="isolation: isolate;"></circle><circle cx="413.53" cy="139.56" r="74.51" fill="#fff"></circle><path d="M455.48,143.26a12.89,12.89,0,0,0,.82,2.33.73.73,0,0,0,.17.58l.61,2.32a1.07,1.07,0,0,0,.2.78l.44,2.7a.74.74,0,0,0,.13.61l.25,2.89,0,.8,0,2.89v.8l-.27,3.48a2.19,2.19,0,0,0-.15,1l-.65,3.5-.35,1.36-1.41,4.27-.73,1.75a69.07,69.07,0,0,1-3.43,6.19l-3.06,4.08q-2.22,2.4-4.62,4.62l-4.08,3.06a64.42,64.42,0,0,1-6.19,3.43l-1.75.73-4.27,1.42-1.37.34-3.49.65a2.2,2.2,0,0,0-1,.16l-3.48.26-.8,0-2.9,0-.79,0-2.71-.23a1.15,1.15,0,0,0-.79-.15l-2.7-.45a1.07,1.07,0,0,0-.78-.19l-2.32-.61a.82.82,0,0,0-.58-.18,10.21,10.21,0,0,0-2.16-.74l-.78-.34-2.12-.88-.59-.3-1.7-.84-.83-.5-1.49-.86a2,2,0,0,0-.84-.54l-1.47-1c-.28-.2-.56-.4-.83-.61l-1.4-1.1a2,2,0,0,0-.74-.64l-1.42-1.29a.83.83,0,0,0-.48-.44l-1.45-1.51-.55-.61-1.16-1.35-.6-.77-1.16-1.56a2.21,2.21,0,0,0-.57-.81,6.58,6.58,0,0,0-1-1.52l-.36-.59-1.13-2.08-.24-.44-.81-1.74a1.33,1.33,0,0,0-.37-.78,10.25,10.25,0,0,0-.81-2.14l-.25-.8-.68-2.12a1.18,1.18,0,0,0-.22-.77,13.61,13.61,0,0,0-.56-2.53l-.11-.8-.33-2.3a2.45,2.45,0,0,0-.15-1.17l-.1-2.71a1.86,1.86,0,0,0-.06-1,19.92,19.92,0,0,0,.13-3.09l.07-1c.15-1,.31-2.08.46-3.13.08-.44.15-.88.23-1.33l1-3.88a4,4,0,0,0,.43-1.35c.72-1.69,1.43-3.38,2.15-5.06l1.14-2.14a45.21,45.21,0,0,1,9.61-11.34,61.37,61.37,0,0,1,5.92-4.19l2.13-1.14,5.06-2.15a3.61,3.61,0,0,0,1.36-.43l3.88-1,1.33-.22,3.13-.47,1-.07a20,20,0,0,0,3.09-.13,1.85,1.85,0,0,0,1,.06l2.9.1a1.66,1.66,0,0,0,1,.15l2.3.33,1,.17a13.58,13.58,0,0,0,2.36.5,1.16,1.16,0,0,0,.77.22l2.11.68.81.25a11,11,0,0,0,2.13.81,1.45,1.45,0,0,0,.79.37l1.73.8c.1.18.28.2.45.25l2.08,1.13.59.36a7.17,7.17,0,0,0,1.52,1l.81.57L442,125l.77.6,1.35,1.16.61.55,1.51,1.45.44.48,1.3,1.42a1.88,1.88,0,0,0,.63.74l1.11,1.4.6.82,1.12,1.65a1.43,1.43,0,0,0,.44.67l.86,1.49.5.83.84,1.7.31.6.87,2.12Zm-43.45-8a1.75,1.75,0,0,0-.16,1.17c0,.42-.38.43-.61.61a14.72,14.72,0,0,0-8.17,8.13,17.08,17.08,0,0,0-1.68,4.45,3.72,3.72,0,0,0-.29,1.36,16,16,0,0,0-.65,3.7,1.92,1.92,0,0,0-.07,1,13.43,13.43,0,0,0-.19,3.1v1l-.27,3.11-.32,1.36c-.1.23-.2.47-.29.71a8.6,8.6,0,0,1-5.08,5.36,4.19,4.19,0,0,0-2.57,4.61,1.6,1.6,0,0,0,.32,1,2.94,2.94,0,0,0,1.36,1.78.8.8,0,0,0,.59.38,3.57,3.57,0,0,0,2.53.51h12.45l2.9.05,0,.57a4.14,4.14,0,0,0,.36,2.52.79.79,0,0,0,.31.6,3.14,3.14,0,0,0,1.81,1.58,1.26,1.26,0,0,0,.79.31,4.2,4.2,0,0,0,4.53-1.78,5.34,5.34,0,0,0,.68-3.62l.23-.23h15.55a4.23,4.23,0,0,0,4.43-4.43,1,1,0,0,0-.13-.8,2.9,2.9,0,0,0-1-1.93A.78.78,0,0,0,439,171a5.81,5.81,0,0,0-2.06-1.11l-.59-.39L435,168.29l-.61-.74-1-1.76-.28-.62-.61-2.13-.15-1-.14-2.69,0-1a16.36,16.36,0,0,0-.15-2.71,1.64,1.64,0,0,0-.14-1,8.11,8.11,0,0,0-.38-2.54l-.13-.79a10.08,10.08,0,0,0-.52-2.1,2,2,0,0,0-.34-1,6.25,6.25,0,0,0-.8-2.13,1.37,1.37,0,0,0-.36-.81,5.57,5.57,0,0,0-.93-1.75,1.45,1.45,0,0,0-.46-.73,5.61,5.61,0,0,0-1.16-1.57,1.48,1.48,0,0,0-.56-.63,5,5,0,0,0-1.36-1.32.86.86,0,0,0-.53-.42,5,5,0,0,0-1.75-1.16,2.29,2.29,0,0,0-1-.53c-.35-.39-1.21-.16-1.2-1a.94.94,0,0,0-.13-.78,2.87,2.87,0,0,0-1-1.95,1.76,1.76,0,0,0-.81-.72,3.08,3.08,0,0,0-2.12-.67,2,2,0,0,0-1.37.13A3.86,3.86,0,0,0,412,135.28Z" transform="translate(-2.8 -17.94)" fill="#3B82F6"></path><polygon points="370.35 189.07 355.35 216.08 392.02 203.41 370.35 189.07" fill="#fff"></polygon><path d="M187.42,427.36a67.81,67.81,0,0,1,40.51,10.83c2.94,1.91,5.87,4.11,9.33,4.63,4.77.71,9.32-1.91,13.54-4.23A146.81,146.81,0,0,1,366,428.07c6.5,2.14,14,6.52,13.51,13.34-.22,2.88-1.94,5.44-3.93,7.53-10.22,10.71-26.74,11.57-41.54,11.72l-96,1c-8.74.09-17.52.18-26.17-1.05-11.42-1.62-22.43-5.51-33.86-7-15.51-2.06-31.29.3-46.89-.87A104.72,104.72,0,0,1,75.9,431.79c3.56-11.71,16.38-17.58,27.95-21.6,42-14.62,92.55-29.25,137.44-27.27C240,395.48,198.05,417.75,187.42,427.36Z" transform="translate(-2.8 -17.94)" opacity="0.26" fill="url(#linear-gradient-14)"></path></svg>