<svg width="400" height="400" viewBox="0 0 400 400" fill="none" xmlns="http://www.w3.org/2000/svg">
<rect width="400" height="400" fill="white"/>
<path d="M200 400C310.457 400 400 310.457 400 200C400 89.5431 310.457 0 200 0C89.5431 0 0 89.5431 0 200C0 310.457 89.5431 400 200 400Z" fill="#3B82F6"/>
<path d="M225.52 123.45C281.89 123.45 327.59 169.15 327.59 225.52V251.04C327.59 293.32 293.32 327.59 251.04 327.59C208.76 327.59 174.49 293.32 174.49 251.04V123.45C146.3 123.45 123.46 146.3 123.46 174.48C123.46 188.57 112.04 200 97.94 200H97.93C83.84 200 72.42 188.58 72.42 174.49C72.42 118.12 118.12 72.42 174.49 72.42H209.5C218.34 72.42 225.51 79.59 225.51 88.43V251.03C225.51 265.12 236.93 276.55 251.03 276.55C265.12 276.55 276.55 265.13 276.55 251.03V225.51C276.55 197.28 253.74 174.36 225.52 174.21" fill="white"/>
<path d="M97.93 225.52C83.84 225.52 72.41 236.94 72.41 251.04V251.05C72.41 265.14 83.83 276.57 97.93 276.57C112.02 276.57 123.45 265.15 123.45 251.05V251.04C123.45 236.94 112.02 225.52 97.93 225.52Z" fill="white"/>
</svg>
